HIERARCHY
ROOT Hips
{
	OFFSET 0.000000 0.000000 0.000000 
	CHANNELS 6 Xposition Yposition Zposition Zrotation Yrotation Xrotation
	JOINT LeftUpLeg
	{
		OFFSET 1.363060 -1.794630 0.839290 
		CHANNELS 3 Zrotation Yrotation Xrotation
		JOINT LeftLeg
		{
			OFFSET 2.448110 -6.726130 0.000000 
			CHANNELS 3 Zrotation Yrotation Xrotation
			JOINT LeftFoot
			{
				OFFSET 2.562200 -7.039590 0.000000 
				CHANNELS 3 Zrotation Yrotation Xrotation
				JOINT LeftToeBase
				{
					OFFSET 0.157640 -0.433110 2.322550 
					CHANNELS 3 Zrotation Yrotation Xrotation
					End Site
					{
						OFFSET 0.000000 0.000000 0.000000 
					}
				}
			}
		}
	}
	JOINT RightUpLeg
	{
		OFFSET -1.305520 -1.794630 0.839290 
		CHANNELS 3 Zrotation Yrotation Xrotation
		JOINT RightLeg
		{
			OFFSET -2.542530 -6.985550 0.000000 
			CHANNELS 3 Zrotation Yrotation Xrotation
			JOINT RightFoot
			{
				OFFSET -2.568260 -7.056230 0.000000 
				CHANNELS 3 Zrotation Yrotation Xrotation
				JOINT RightToeBase
				{
					OFFSET -0.164730 -0.452590 2.363150 
					CHANNELS 3 Zrotation Yrotation Xrotation
					End Site
					{
						OFFSET 0.000000 0.000000 0.000000 
					}
				}
			}
		}
	}
	JOINT Spine
	{
		OFFSET 0.028270 2.035590 -0.193380 
		CHANNELS 3 Zrotation Yrotation Xrotation
		JOINT Spine1
		{
			OFFSET 0.056720 2.048850 -0.042750 
			CHANNELS 3 Zrotation Yrotation Xrotation
			JOINT Neck1
			{
				OFFSET -0.054170 1.746240 0.172020 
				CHANNELS 3 Zrotation Yrotation Xrotation
				JOINT Head
				{
					OFFSET 0.104070 1.761360 -0.123970 
					CHANNELS 3 Zrotation Yrotation Xrotation
					End Site
					{
						OFFSET 0.000000 0.000000 0.000000 
					}
				}
			}
			JOINT LeftArm
			{
				OFFSET 3.362410 1.200890 -0.311210 
				CHANNELS 3 Zrotation Yrotation Xrotation
				JOINT LeftForeArm
				{
					OFFSET 4.983000 -0.000000 -0.000000 
					CHANNELS 3 Zrotation Yrotation Xrotation
					JOINT LeftHand
					{
						OFFSET 3.483560 -0.000000 -0.000000 
						CHANNELS 3 Zrotation Yrotation Xrotation
						JOINT LeftHandIndex1
						{
							OFFSET 0.715260 -0.000000 -0.000000 
							CHANNELS 3 Zrotation Yrotation Xrotation
							End Site
							{
								OFFSET 0.000000 0.000000 0.000000 
							}
						}
					}
				}
			}
			JOINT RightArm
			{
				OFFSET -3.136600 1.374050 -0.404650 
				CHANNELS 3 Zrotation Yrotation Xrotation
				JOINT RightForeArm
				{
					OFFSET -5.241900 -0.000000 -0.000000 
					CHANNELS 3 Zrotation Yrotation Xrotation
					JOINT RightHand
					{
						OFFSET -3.444170 -0.000000 -0.000000 
						CHANNELS 3 Zrotation Yrotation Xrotation
						JOINT RightHandIndex1
						{
							OFFSET -0.622530 -0.000000 -0.000000 
							CHANNELS 3 Zrotation Yrotation Xrotation
							End Site
							{
								OFFSET 0.000000 0.000000 0.000000 
							}
						}
					}
				}
			}
		}
	}
}
MOTION
Frames: 6
Frame Time: 0.041667
-4.160969 16.395097 -36.802564 -10.384336 -24.484775 21.033477 -27.831592 -14.842353 -59.726268 13.977537 23.905540 75.174003 1.089490 -0.760587 -9.874541 0.010300 -0.656400 -1.803900 37.191135 -5.173644 2.860901 -0.385880 -6.063199 23.593155 -1.107501 4.161396 -6.786074 -2.655700 10.115700 -29.352200 1.548125 1.946771 -3.638688 -0.523938 1.586303 4.899016 -2.297453 6.195728 5.247429 0.897700 1.911300 9.585300 -59.489908 20.726286 59.554512 75.533790 -58.698882 -54.904088 0.280705 -2.907566 -18.047506 -7.125000 0.000000 0.000000 50.775036 -8.111356 50.496378 -88.425479 56.694013 -64.968358 -0.924897 1.633435 -9.535776 7.125000 0.000000 0.000000 
-4.278726 16.510590 -36.532003 -10.290068 -24.094754 20.810316 -28.252480 -14.584062 -59.283521 12.293249 23.403887 70.658859 1.394296 -2.204840 -8.944962 0.000600 0.155900 0.428300 37.002485 -5.199120 5.274436 0.048776 -5.106468 21.207086 -0.409948 1.268935 -4.420771 -3.099700 10.854700 -31.791500 1.442831 2.394391 -3.583399 -0.698987 1.855593 5.292914 -2.053747 5.690102 5.397421 1.071300 1.688400 9.737200 -58.498846 21.286335 60.813369 75.113468 -58.700066 -54.514321 0.275299 -2.925748 -17.510428 -7.125000 0.000000 0.000000 51.247531 -7.719118 50.421041 -89.166329 56.724328 -65.560184 -0.935302 1.642318 -9.082798 7.125000 0.000000 0.000000 
-4.392385 16.637513 -36.208818 -10.602635 -24.031206 19.780384 -28.789847 -13.598129 -57.404391 10.582804 22.614850 65.927933 1.740695 -3.646256 -8.518405 0.008400 0.592700 1.628600 36.578762 -5.824529 8.817661 0.422027 -4.145014 18.994341 0.397453 -2.136102 -1.984005 -4.177800 12.393400 -37.138100 1.324434 3.087794 -3.417622 -1.200674 2.289579 5.961523 -1.946797 5.178679 5.768934 1.082300 1.434200 10.214700 -57.389907 21.511122 62.179001 74.660022 -58.653466 -54.108710 0.265779 -2.965321 -17.174435 -7.125000 0.000000 0.000000 51.838312 -7.462465 50.005602 -89.960584 56.769426 -66.234484 -0.935595 1.654277 -8.416841 7.125000 0.000000 0.000000 
-4.512407 16.708685 -35.878192 -10.927853 -24.565135 19.115212 -29.201875 -12.409357 -56.237697 9.011683 21.779170 61.483935 1.851516 -3.956422 -8.466649 0.000400 -0.124400 -0.341800 36.102281 -6.241432 11.960920 0.813411 -3.119858 16.423306 1.225788 -5.526027 1.638197 -5.554300 13.982100 -43.165600 1.495306 3.174152 -3.426073 -0.307410 2.238649 5.595146 -1.832147 5.712960 5.933113 1.378500 1.612700 9.951300 -58.803584 24.245717 62.088012 74.411176 -58.958415 -53.784321 0.247771 -2.902339 -16.587059 -7.125000 0.000000 0.000000 50.374265 -7.749234 52.170058 -91.174098 56.899761 -67.195849 -0.991311 1.732587 -7.889396 7.125000 0.000000 0.000000 
-4.632752 16.839490 -35.632649 -10.944564 -23.533099 19.350708 -29.261300 -12.453802 -55.866095 7.351730 20.885816 56.750726 1.796000 -3.841652 -7.428876 0.004900 -0.453000 -1.244600 36.460814 -5.527668 14.808890 1.368401 -1.889794 13.130210 1.984047 -8.984437 2.428956 -2.826500 10.408800 -30.310800 1.315914 3.446200 -3.379916 -1.069985 2.492271 6.240681 -1.795391 4.919268 6.028338 1.255900 1.292700 10.183000 -56.972491 24.026009 63.380058 73.678408 -58.798820 -53.268296 0.244208 -2.991590 -16.874995 -7.125000 0.000000 0.000000 51.695267 -7.096646 51.778628 -91.743638 56.855345 -67.566759 -0.990362 1.700893 -7.433485 7.125000 0.000000 0.000000 
-4.749215 16.954551 -35.353353 -10.990277 -22.872552 19.352754 -29.272149 -12.457742 -55.090232 5.860805 19.884706 52.293554 1.895214 -4.374894 -6.246262 0.001200 0.219200 0.602300 36.065651 -6.702111 17.191080 1.825679 -0.671281 9.728184 2.753126 -12.548279 5.362172 -2.036500 8.941700 -25.613000 1.235130 3.505464 -3.400677 -1.394296 2.576384 6.294397 -1.768437 4.528374 5.997326 1.203300 1.157200 10.067000 -56.034771 24.984773 64.324856 73.081775 -58.802234 -52.815114 0.224436 -3.029454 -17.120397 -7.125000 0.000000 0.000000 52.346083 -6.582972 52.396815 -92.149233 56.807993 -67.760151 -1.006469 1.691625 -7.070809 7.125000 0.000000 0.000000 
